<?xml version="1.0" encoding="utf-8"?>
<!-- Generator: Adobe Illustrator 25.1.0, SVG Export Plug-In . SVG Version: 6.00 Build 0)  -->
<svg version="1.1" width="32px" height="32px" id="Layer_1" xmlns="http://www.w3.org/2000/svg" xmlns:xlink="http://www.w3.org/1999/xlink" x="0px" y="0px"
	 viewBox="0 0 32.4 31.8" style="enable-background:new 0 0 32.4 31.8;" xml:space="preserve">
<style type="text/css">
	.st0{fill-rule:evenodd;clip-rule:evenodd;fill:#FFFFFF;}
</style>
<g id="Layer_2_1_">
	<g id="Layer_1-2">
		<path class="st0" d="M16.3,0C7.3,0,0,7.3,0,16.3c0,7,4.5,13.3,11.2,15.5c0.8,0.1,1.1-0.4,1.1-0.8v-2.8c-4.5,1-5.5-2.2-5.5-2.2
			c-0.3-1-0.9-1.8-1.8-2.4c-1.5-1,0.1-1,0.1-1c1,0.1,2,0.8,2.5,1.7c0.9,1.7,3,2.3,4.7,1.4c0,0,0,0,0,0l0,0c0.1-0.8,0.4-1.6,1-2.2
			c-3.6-0.4-7.4-1.8-7.4-8c0-1.6,0.6-3.2,1.7-4.4C7.1,9.7,7.2,8.2,7.8,6.8c0,0,1.4-0.4,4.5,1.7c2.7-0.7,5.5-0.7,8.1,0
			c3.1-2.1,4.5-1.7,4.5-1.7c0.6,1.4,0.6,2.9,0.1,4.3c1.1,1.2,1.7,2.7,1.7,4.3c0,6.3-3.8,7.6-7.4,8c0.8,0.8,1.2,1.9,1.1,3v4.5
			c0,0.5,0.3,1,1.1,0.8c8.5-3,13-12.3,10-20.8C29.2,4.5,23.2,0.1,16.3,0z"/>
	</g>
</g>
</svg>
